<svg xmlns="http://www.w3.org/2000/svg" viewBox="0 0 200 200"><rect width="200" height="200" rx="24" fill="#071526"/><circle cx="100" cy="100" r="82" fill="none" stroke="#1e88e5" stroke-width="3"/><path d="M 105.400 50.800 L 110.000 53.800 L 110.000 56.900 L 111.500 56.900 L 111.500 60.000 L 114.600 63.100 L 123.800 64.600 L 130.000 70.800 L 133.100 70.800 L 143.800 81.500 L 143.800 84.600 L 145.400 84.600 L 145.400 87.700 L 148.500 90.800 L 148.500 95.400 L 150.000 95.400 L 150.000 118.500 L 148.500 118.500 L 146.900 126.200 L 142.300 130.800 L 142.300 133.800 L 133.100 143.100 L 130.000 143.100 L 126.900 147.700 L 120.800 147.700 L 120.800 149.200 L 99.200 149.200 L 99.200 141.500 L 113.100 140.000 L 113.100 138.500 L 122.300 135.400 L 123.800 132.300 L 126.900 132.300 L 130.000 129.200 L 130.000 126.200 L 133.100 124.600 L 133.100 121.500 L 136.200 118.500 L 136.200 113.800 L 137.700 113.800 L 137.700 98.500 L 136.200 98.500 L 134.600 90.800 L 131.500 89.200 L 131.500 86.200 L 123.800 78.500 L 120.800 78.500 L 119.200 75.400 L 114.600 75.400 L 114.600 73.800 L 110.000 73.800 L 110.000 72.300 L 96.200 72.300 L 96.200 69.200 L 97.700 69.200 L 97.700 66.200 L 99.200 66.200 L 99.200 63.100 L 100.800 63.100 L 100.800 60.000 L 102.300 60.000 L 105.400 52.300 Z M 60.800 124.600 L 63.800 124.600 L 63.800 127.700 L 68.500 130.800 L 68.500 133.800 L 71.500 135.400 L 71.500 138.500 L 76.200 143.100 L 76.200 146.200 L 50.000 146.200 L 50.000 143.100 L 53.100 141.500 L 53.100 138.500 L 54.600 138.500 L 54.600 135.400 L 56.200 135.400 L 56.200 132.300 L 57.700 132.300 L 57.700 129.200 L 60.800 126.200 Z" fill="#7dffb2" fill-rule="evenodd"/></svg>