<svg xmlns="http://www.w3.org/2000/svg" viewBox="0 0 200 200"><rect width="200" height="200" rx="24" fill="#071526"/><circle cx="100" cy="100" r="82" fill="none" stroke="#1e88e5" stroke-width="3"/><path d="M 142.300 57.100 L 143.600 57.100 L 144.900 123.700 L 147.400 123.700 L 150.000 127.600 L 147.400 128.800 L 147.400 131.400 L 144.900 132.700 L 144.900 135.300 L 142.300 136.500 L 139.700 142.900 L 137.200 141.700 L 134.600 123.700 L 133.300 123.700 L 133.300 118.600 L 132.100 118.600 L 132.100 117.300 L 134.600 117.300 L 134.600 118.600 L 139.700 119.900 L 139.700 67.300 L 135.900 69.900 L 135.900 72.400 L 130.800 77.600 L 120.500 78.800 L 120.500 80.100 L 115.400 80.100 L 115.400 81.400 L 110.300 81.400 L 110.300 82.700 L 74.400 81.400 L 74.400 80.100 L 64.100 80.100 L 64.100 78.800 L 60.300 78.800 L 60.300 80.100 L 52.600 82.700 L 51.300 76.300 L 50.000 76.300 L 50.000 72.400 L 55.100 67.300 L 62.800 68.600 L 64.100 73.700 L 71.800 73.700 L 71.800 75.000 L 89.700 75.000 L 89.700 76.300 L 120.500 75.000 L 120.500 73.700 L 126.900 73.700 L 142.300 58.300 Z" fill="#7dffb2" fill-rule="evenodd"/></svg>