<svg xmlns="http://www.w3.org/2000/svg" viewBox="0 0 200 200"><rect width="200" height="200" rx="24" fill="#071526"/><circle cx="100" cy="100" r="82" fill="none" stroke="#1e88e5" stroke-width="3"/><path d="M 145.500 50.000 L 149.100 50.000 L 147.300 66.400 L 141.800 66.400 L 141.800 64.500 L 136.400 64.500 L 136.400 62.700 L 116.400 66.400 L 116.400 68.200 L 101.800 73.600 L 100.000 77.300 L 96.400 77.300 L 90.900 84.500 L 87.300 84.500 L 78.200 93.600 L 78.200 97.300 L 74.500 99.100 L 74.500 102.700 L 70.900 106.400 L 70.900 111.800 L 69.100 111.800 L 69.100 117.300 L 67.300 117.300 L 67.300 122.700 L 65.500 122.700 L 65.500 128.200 L 63.600 128.200 L 63.600 135.500 L 61.800 135.500 L 65.500 150.000 L 63.600 148.200 L 50.900 148.200 L 50.900 144.500 L 56.400 140.900 L 56.400 133.600 L 58.200 133.600 L 58.200 126.400 L 60.000 126.400 L 65.500 104.500 L 67.300 104.500 L 72.700 90.000 L 81.800 82.700 L 81.800 79.100 L 87.300 77.300 L 94.500 68.200 L 98.200 68.200 L 98.200 66.400 L 101.800 66.400 L 101.800 64.500 L 105.500 64.500 L 109.100 60.900 L 114.500 60.900 L 114.500 59.100 L 125.500 57.300 L 125.500 55.500 L 141.800 55.500 L 145.500 51.800 Z" fill="#7dffb2" fill-rule="evenodd"/></svg>